<svg clip-rule="evenodd" fill-rule="evenodd" height="24" stroke-linejoin="round" stroke-miterlimit="2" viewBox="0 0 24 24" width="24" xmlns="http://www.w3.org/2000/svg"><path d="m0 2.5c0-1.105.895-2 2-2h4c1.105 0 2 .895 2 2v4c0 1.105-.895 2-2 2h-4c-1.105 0-2-.895-2-2zm6 0h-4v4h4zm4 0c0-1.105.895-2 2-2h4c1.105 0 2 .895 2 2v4c0 1.105-.895 2-2 2h-4c-1.105 0-2-.895-2-2zm6 0h-4v4h4zm-16 10c0-1.105.895-2 2-2h4c1.105 0 2 .895 2 2v4c0 1.105-.895 2-2 2h-4c-1.105 0-2-.895-2-2zm6 0h-4v4h4zm4 0c0-1.105.895-2 2-2h4c1.105 0 2 .895 2 2v4c0 1.105-.895 2-2 2h-4c-1.105 0-2-.895-2-2zm6 0h-4v4h4z" transform="translate(3 2.5)"/></svg>