<svg fill="none" height="32" viewBox="0 0 32 32" width="32" xmlns="http://www.w3.org/2000/svg" xmlns:xlink="http://www.w3.org/1999/xlink"><clipPath id="a"><path d="m4 8h24v15h-24z"/></clipPath><g clip-path="url(#a)" clip-rule="evenodd" fill-rule="evenodd"><path d="m8.23802 22.1841c-2.05952-.0008-3.72661-1.7056-3.72752-3.8099v-6.181c.00091-2.1038 1.668-3.80841 3.72752-3.80935h6.81388v2.36905h-6.81388c-.77812.0007-1.40917.6457-1.40917 1.4403v6.181c0 .7953.63105 1.4393 1.40917 1.4406h6.81388v2.3693z" fill="#053775"/><path d="m8.33716 14.0817v2.2492h5.21174l1.0005-2.2492z" fill="#053775"/><g fill="#e2066e"><path d="m17.1376 22.1841h2.2764v-5.8365h-2.2764z"/><path d="m19.414 8.3772h-2.2764v5.7025h2.2764z"/><path d="m25.3781 8.3772v5.7144h-4.8582l-.9723 2.2376h5.8305v5.8549h2.2702v-13.8069z"/></g></g></svg>