<svg clip-rule="evenodd" fill-rule="evenodd" stroke-linejoin="round" stroke-miterlimit="2" viewBox="0 0 900 900" xmlns="http://www.w3.org/2000/svg"><path d="m900 75.332c0-41.577-33.755-75.332-75.332-75.332h-749.336c-41.577 0-75.332 33.755-75.332 75.332v749.336c0 41.577 33.755 75.332 75.332 75.332h749.336c41.577 0 75.332-33.755 75.332-75.332z" fill="#fff"/><g fill-rule="nonzero"><path d="m492.52 347.199h-85.039l85.039 228.449h85.039z" fill="#3ea6de"/><path d="m657.479 282.728c0-24.512 19.426-45.326 47.639-45.326s47.639 20.814 47.639 45.326-19.426 45.789-47.639 45.789-47.639-21.277-47.639-45.789z" fill="#e02146"/><path d="m747.637 347.199v228.449h.002l85.039-228.449z" fill="#97c6dd"/><path d="m662.598 575.648 85.039-228.447v-.002h-85.039z" fill="#e02146"/><path d="m747.637 575.648v-228.447l-85.039 228.447z" fill="#6a2e4a"/><path d="m407.479 347.201v228.447h.002l85.041-228.449h-85.041z" fill="#97c6dd"/><path d="m322.44 347.199v228.449h.002l85.037-228.447v-.002z" fill="#e02146"/><path d="m407.479 575.648v-228.447l-85.037 228.447z" fill="#6a2e4a"/><path d="m152.362 575.648c-7.635 20.516-18.471 25.9-36.51 25.9-11.562 0-20.77-1.85-29.49-4.625l-1.441 61.051c11.947 3.238 27.178 4.625 40.59 4.625 59.201 0 87.168-20.521 105.021-68.488l6.871-18.463z" fill="#e02146"/><path d="m492.52 347.199h-85.039l85.039 228.449h85.039z" fill="#e02146"/><path d="m317.323 282.728c0-24.512 19.424-45.326 47.637-45.326s47.639 20.814 47.639 45.326-19.426 45.789-47.639 45.789-47.637-21.277-47.637-45.789z" fill="#e02146"/><path d="m535.039 461.437 42.52 114.211h.002l85.039-228.449h-85.041z" fill="#6a2e4a"/><path d="m237.401 347.199-42.518 114.238 42.52 114.211 85.039-228.449z" fill="#6a2e4a"/><path d="m152.362 575.648h85.041l-85.039-228.449h-85.041z" fill="#e02146"/><path d="m152.364 347.199v.002z" fill="#97c6dd"/><path d="m67.323 347.201v-.002z" fill="#e02146"/><path d="m109.842 461.441 42.522-114.24v-.002h-85.041v.002z" fill="#6a2e4a"/><path d="m450 461.441 42.52-114.24v-.002h-85.039v.002z" fill="#ba3353"/><path d="m535.039 461.441-42.519 114.209v.002h85.041v-.002z" fill="#ba3353"/><path d="m194.883 461.441-42.521 114.209v.002h85.041v-.002z" fill="#ba3353"/></g></svg>